<svg width="508" height="421" viewBox="0 0 508 421" fill="none" xmlns="http://www.w3.org/2000/svg">
<path d="M257.737 60.2576C239.72 31.9448 219.953 10.53 180.006 7.23545C130.072 3.11722 133.161 16.5015 90.9493 19.5901C48.7375 22.6788 48.2227 18.5606 42.0454 16.5015M42.0454 16.5015L136.765 372.728M42.0454 16.5015L7.04053 61.8019L95.0675 403.1M136.765 372.728L95.0675 403.1M136.765 372.728C141.226 376.846 154.164 384.259 170.225 380.964C190.301 376.846 199.053 369.639 217.585 368.61C232.41 367.786 232.513 367.065 250.53 373.243C268.548 379.42 274.725 386.627 291.713 384.053M95.0675 403.1C98.671 407.733 114.423 416.381 148.604 413.91C191.331 410.821 192.875 403.614 204.715 398.981C216.555 394.348 226.336 392.804 239.72 393.834C250.427 394.657 266.145 405.845 272.666 411.336" stroke="white" stroke-width="12.9119" stroke-linecap="round"/>
<path d="M250.016 47.9028C259.625 35.7198 287.08 12.4861 320.026 17.0162C361.208 22.6787 375.622 39.1516 402.39 47.9028C429.159 56.6541 432.59 52.1927 447.176 51.5063L501.227 358.829M501.227 358.829L484.24 404.129H451.294C443.058 403.1 419.378 393.834 399.816 383.538C380.255 373.242 354.516 373.242 340.102 377.875C325.688 382.508 300.464 409.792 300.464 409.792M501.227 358.829H432.762C426.242 357.628 403.934 353.681 385.402 344.415C366.87 335.149 337.528 339.782 327.747 348.018C320.197 362.089 300.052 389.201 279.873 385.082C254.649 379.935 252.075 354.196 256.708 345.959C261.341 337.723 270.607 341.326 287.595 340.297C304.582 339.267 320.54 339.782 323.629 331.545C326.718 323.309 321.57 319.191 313.334 319.191C306.744 319.191 277.642 320.563 263.915 321.25L232.513 322.279C229.94 322.108 224.792 319.603 224.792 310.954C224.792 302.306 229.94 301.174 232.513 301.688L328.777 299.629C332.037 299.629 338.455 297.673 338.043 289.848C337.528 280.068 333.925 278.523 328.777 278.009C324.659 277.597 259.11 280.926 226.851 282.642C222.218 280.754 212.952 274.714 212.952 265.654C212.952 254.329 207.804 245.063 205.745 243.004C192.704 231.679 165.695 204.395 161.989 185.863C157.356 162.698 150.149 108.132 195.964 79.3043C241.779 50.4768 301.494 57.6836 339.587 90.1146C361.208 110.191 371.503 131.812 369.959 161.154C368.724 184.628 349.54 212.803 340.102 223.957C337.357 227.904 331.866 240.018 331.866 256.903" stroke="white" stroke-width="12.9119" stroke-linecap="round"/>
<path d="M205.745 194.1C205.402 180.373 208.113 151.682 221.703 146.74C238.691 140.563 251.045 210.058 264.944 209.029C278.843 207.999 279.358 161.669 293.257 146.74C304.376 134.798 318.481 167.846 324.144 185.864" stroke="white" stroke-width="5.71812" stroke-linecap="round"/>
</svg>
